<?xml version="1.0" encoding="UTF-8" standalone="no"?>
<!-- Created with Inkscape (http://www.inkscape.org/) -->

<svg
   width="250"
   height="250"
   viewBox="0 0 66.145832 66.145833"
   version="1.1"
   id="svg1"
   inkscape:export-filename="star.png"
   inkscape:export-xdpi="96"
   inkscape:export-ydpi="96"
   inkscape:version="1.3.2 (091e20ef0f, 2023-11-25, custom)"
   sodipodi:docname="star.svg"
   xmlns:inkscape="http://www.inkscape.org/namespaces/inkscape"
   xmlns:sodipodi="http://sodipodi.sourceforge.net/DTD/sodipodi-0.dtd"
   xmlns="http://www.w3.org/2000/svg"
   xmlns:svg="http://www.w3.org/2000/svg">
  <sodipodi:namedview
     id="namedview1"
     pagecolor="#505050"
     bordercolor="#eeeeee"
     borderopacity="1"
     inkscape:showpageshadow="0"
     inkscape:pageopacity="0"
     inkscape:pagecheckerboard="0"
     inkscape:deskcolor="#505050"
     inkscape:document-units="mm"
     inkscape:zoom="1.0544998"
     inkscape:cx="171.17121"
     inkscape:cy="155.99813"
     inkscape:window-width="1144"
     inkscape:window-height="1031"
     inkscape:window-x="1409"
     inkscape:window-y="42"
     inkscape:window-maximized="1"
     inkscape:current-layer="layer1" />
  <defs
     id="defs1" />
  <g
     inkscape:label="Layer 1"
     inkscape:groupmode="layer"
     id="layer1">
    <path
       sodipodi:type="star"
       style="fill:#fde68a;stroke:#fcd34d;stroke-width:1.2;stroke-dasharray:none;fill-opacity:0.30000001;stroke-opacity:0.30000001"
       id="path8"
       inkscape:flatsided="false"
       sodipodi:sides="5"
       sodipodi:cx="20.51049"
       sodipodi:cy="23.935427"
       sodipodi:r1="10.884153"
       sodipodi:r2="6.1412907"
       sodipodi:arg1="0.79530287"
       sodipodi:arg2="1.4236214"
       inkscape:rounded="0.16146116"
       inkscape:randomized="0"
       d="m 28.130144,31.707536 c -0.799011,0.783337 -5.612222,-1.861297 -6.719069,-1.69721 -1.106847,0.164086 -4.945792,4.091375 -5.937697,3.573535 -0.991906,-0.517839 0.03593,-5.912712 -0.462164,-6.91468 -0.49809,-1.001969 -5.4194625,-3.439423 -5.2334836,-4.542803 0.1859789,-1.103379 5.6344256,-1.79296 6.4334356,-2.576298 0.79901,-0.783337 1.59638,-6.217055 2.703227,-6.381141 1.106846,-0.164087 3.44634,4.804601 4.438245,5.322441 0.991906,0.517839 6.40608,-0.402929 6.90417,0.59904 0.49809,1.001968 -3.50447,4.762368 -3.690449,5.865747 -0.185979,1.103379 2.362795,5.968032 1.563785,6.751369 z"
       inkscape:transform-center-x="0.37791562"
       inkscape:transform-center-y="0.24703701"
       transform="matrix(0.5882789,-0.15762886,0.15762886,0.5882789,17.661547,-10.847661)" />
    <path
       sodipodi:type="star"
       style="fill:#fde68a;stroke:#fcd34d;stroke-width:1.2;stroke-dasharray:none;fill-opacity:0.30000001;stroke-opacity:0.30000001"
       id="path9"
       inkscape:flatsided="false"
       sodipodi:sides="5"
       sodipodi:cx="20.51049"
       sodipodi:cy="23.935427"
       sodipodi:r1="10.884153"
       sodipodi:r2="6.1412907"
       sodipodi:arg1="0.79530287"
       sodipodi:arg2="1.4236214"
       inkscape:rounded="0.16146116"
       inkscape:randomized="0"
       d="m 28.130144,31.707536 c -0.799011,0.783337 -5.612222,-1.861297 -6.719069,-1.69721 -1.106847,0.164086 -4.945792,4.091375 -5.937697,3.573535 -0.991906,-0.517839 0.03593,-5.912712 -0.462164,-6.91468 -0.49809,-1.001969 -5.4194625,-3.439423 -5.2334836,-4.542803 0.1859789,-1.103379 5.6344256,-1.79296 6.4334356,-2.576298 0.79901,-0.783337 1.59638,-6.217055 2.703227,-6.381141 1.106846,-0.164087 3.44634,4.804601 4.438245,5.322441 0.991906,0.517839 6.40608,-0.402929 6.90417,0.59904 0.49809,1.001968 -3.50447,4.762368 -3.690449,5.865747 -0.185979,1.103379 2.362795,5.968032 1.563785,6.751369 z"
       inkscape:transform-center-x="0.37791562"
       inkscape:transform-center-y="0.24703701"
       transform="matrix(0.5882789,-0.15762886,0.15762886,0.5882789,50.734464,22.039105)" />
    <path
       sodipodi:type="star"
       style="fill:#fde68a;stroke:#fcd34d;stroke-width:1.2;stroke-dasharray:none;fill-opacity:0.30000001;stroke-opacity:0.30000001"
       id="path10"
       inkscape:flatsided="false"
       sodipodi:sides="5"
       sodipodi:cx="20.51049"
       sodipodi:cy="23.935427"
       sodipodi:r1="10.884153"
       sodipodi:r2="6.1412907"
       sodipodi:arg1="0.79530287"
       sodipodi:arg2="1.4236214"
       inkscape:rounded="0.16146116"
       inkscape:randomized="0"
       d="m 28.130144,31.707536 c -0.799011,0.783337 -5.612222,-1.861297 -6.719069,-1.69721 -1.106847,0.164086 -4.945792,4.091375 -5.937697,3.573535 -0.991906,-0.517839 0.03593,-5.912712 -0.462164,-6.91468 -0.49809,-1.001969 -5.4194625,-3.439423 -5.2334836,-4.542803 0.1859789,-1.103379 5.6344256,-1.79296 6.4334356,-2.576298 0.79901,-0.783337 1.59638,-6.217055 2.703227,-6.381141 1.106846,-0.164087 3.44634,4.804601 4.438245,5.322441 0.991906,0.517839 6.40608,-0.402929 6.90417,0.59904 0.49809,1.001968 -3.50447,4.762368 -3.690449,5.865747 -0.185979,1.103379 2.362795,5.968032 1.563785,6.751369 z"
       inkscape:transform-center-x="0.37791562"
       inkscape:transform-center-y="0.24703701"
       transform="matrix(0.5882789,-0.15762886,0.15762886,0.5882789,-15.411369,22.039105)" />
    <path
       sodipodi:type="star"
       style="fill:#fde68a;stroke:#fcd34d;stroke-width:1.2;stroke-dasharray:none;fill-opacity:0.30000001;stroke-opacity:0.30000001"
       id="path11"
       inkscape:flatsided="false"
       sodipodi:sides="5"
       sodipodi:cx="20.51049"
       sodipodi:cy="23.935427"
       sodipodi:r1="10.884153"
       sodipodi:r2="6.1412907"
       sodipodi:arg1="0.79530287"
       sodipodi:arg2="1.4236214"
       inkscape:rounded="0.16146116"
       inkscape:randomized="0"
       d="m 28.130144,31.707536 c -0.799011,0.783337 -5.612222,-1.861297 -6.719069,-1.69721 -1.106847,0.164086 -4.945792,4.091375 -5.937697,3.573535 -0.991906,-0.517839 0.03593,-5.912712 -0.462164,-6.91468 -0.49809,-1.001969 -5.4194625,-3.439423 -5.2334836,-4.542803 0.1859789,-1.103379 5.6344256,-1.79296 6.4334356,-2.576298 0.79901,-0.783337 1.59638,-6.217055 2.703227,-6.381141 1.106846,-0.164087 3.44634,4.804601 4.438245,5.322441 0.991906,0.517839 6.40608,-0.402929 6.90417,0.59904 0.49809,1.001968 -3.50447,4.762368 -3.690449,5.865747 -0.185979,1.103379 2.362795,5.968032 1.563785,6.751369 z"
       inkscape:transform-center-x="0.37791562"
       inkscape:transform-center-y="0.24703701"
       transform="matrix(0.5882789,-0.15762886,0.15762886,0.5882789,17.661547,54.925871)" />
  </g>
</svg>
